<svg xmlns="http://www.w3.org/2000/svg" viewBox="0 0 980 300" width="980" height="300" role="img" aria-labelledby="t d">
<title id="t">Capture yield, 2026-09-22</title>
<desc id="d">Horizontal bars: 7,992 Bash commands, 4,904 with a program, 5,426 program occurrences, 5,046 distinct programs, 204 distinct tier A, 179 selected.</desc>
<style>
  .bg   { fill: #fbfbfa; }
  .box  { fill: #f2f1ee; stroke: #d9d6cf; stroke-width: 1; }
  .hot  { fill: #f7ebe3; stroke: #9a4a20; stroke-width: 1.2; }
  .lane { fill: none; stroke: #e2e0da; stroke-width: 1; stroke-dasharray: 3 4; }
  .rule { stroke: #e2e0da; stroke-width: 1; }
  .axis { stroke: #b9b5ad; stroke-width: 1; }
  .ref  { stroke: #9a4a20; stroke-width: 1.5; stroke-dasharray: 5 4; }
  .wire { stroke: #8d8981; stroke-width: 1.4; fill: none; }
  .head { fill: #8d8981; }
  .acc  { fill: #9a4a20; }
  .t    { fill: #1f1e1c; }
  .m    { fill: #6b6862; }
  .f    { fill: #8d8981; }
  .a    { fill: #9a4a20; }
  .s1   { fill: #2a78d6; }
  .s1l  { stroke: #2a78d6; stroke-width: 2; }
  .s2   { fill: #e34948; }
  .band1 { fill: #eef4fc; }
  .band2 { fill: #f7ebe3; }
  .band3 { fill: #edf6f1; }
  @media (prefers-color-scheme: dark) {
    .bg   { fill: #16151a; }
    .box  { fill: #1e1d23; stroke: #3a3842; }
    .hot  { fill: #2b201b; stroke: #e0885a; }
    .lane { stroke: #2e2c34; }
    .rule { stroke: #2e2c34; }
    .axis { stroke: #5a5662; }
    .ref  { stroke: #e0885a; }
    .wire { stroke: #837e75; }
    .head { fill: #837e75; }
    .acc  { fill: #e0885a; }
    .t    { fill: #e8e6e1; }
    .m    { fill: #a9a49b; }
    .f    { fill: #837e75; }
    .a    { fill: #e0885a; }
    .s1   { fill: #3987e5; }
    .s1l  { stroke: #3987e5; }
    .s2   { fill: #e66767; }
    .band1 { fill: #1b2230; }
    .band2 { fill: #2b201b; }
    .band3 { fill: #19251f; }
  }
  text { font-family: ui-sans-serif, system-ui, -apple-system, "Segoe UI", Roboto, Helvetica, Arial, sans-serif; }
  .mono { font-family: ui-monospace, SFMono-Regular, Menlo, Consolas, monospace; }
</style>
<defs><marker id="ah" viewBox="0 0 10 10" refX="9" refY="5" markerWidth="7" markerHeight="7" orient="auto-start-reverse"><path class="head" d="M0,0 L10,5 L0,10 z"/></marker></defs>
<rect class="bg" x="0" y="0" width="980" height="300" rx="10"/>
<line class="rule" x1="268.0" y1="26.0" x2="268.0" y2="254.0"/>
<text class="f" x="268.0" y="272.0" font-size="10.5" text-anchor="middle">0</text>
<line class="rule" x1="418.2" y1="26.0" x2="418.2" y2="254.0"/>
<text class="f" x="418.2" y="272.0" font-size="10.5" text-anchor="middle">2,000</text>
<line class="rule" x1="568.3" y1="26.0" x2="568.3" y2="254.0"/>
<text class="f" x="568.3" y="272.0" font-size="10.5" text-anchor="middle">4,000</text>
<line class="rule" x1="718.5" y1="26.0" x2="718.5" y2="254.0"/>
<text class="f" x="718.5" y="272.0" font-size="10.5" text-anchor="middle">6,000</text>
<text class="t" x="256.0" y="51.0" font-size="12.5" text-anchor="end">Bash commands in the capture log</text>
<path class="s1" d="M268.0,34.0 h596.0 a4,4 0 0 1 4,4 v18.0 a4,4 0 0 1 -4,4 h-596.0 z"/>
<text class="t" x="876.0" y="51.0" font-size="12.5" text-anchor="start" font-weight="700">7,992</text>
<text class="t" x="256.0" y="89.0" font-size="12.5" text-anchor="end">commands that carry a program</text>
<path class="s1" d="M268.0,72.0 h364.2 a4,4 0 0 1 4,4 v18.0 a4,4 0 0 1 -4,4 h-364.2 z"/>
<text class="t" x="644.2" y="89.0" font-size="12.5" text-anchor="start" font-weight="700">4,904</text>
<text class="t" x="256.0" y="127.0" font-size="12.5" text-anchor="end">program occurrences</text>
<path class="s1" d="M268.0,110.0 h403.4 a4,4 0 0 1 4,4 v18.0 a4,4 0 0 1 -4,4 h-403.4 z"/>
<text class="t" x="683.4" y="127.0" font-size="12.5" text-anchor="start" font-weight="700">5,426</text>
<text class="t" x="256.0" y="165.0" font-size="12.5" text-anchor="end">distinct programs</text>
<path class="s1" d="M268.0,148.0 h374.8 a4,4 0 0 1 4,4 v18.0 a4,4 0 0 1 -4,4 h-374.8 z"/>
<text class="t" x="654.8" y="165.0" font-size="12.5" text-anchor="start" font-weight="700">5,046</text>
<text class="t" x="256.0" y="203.0" font-size="12.5" text-anchor="end">distinct, quality tier A</text>
<path class="s1" d="M268.0,186.0 h11.3 a4,4 0 0 1 4,4 v18.0 a4,4 0 0 1 -4,4 h-11.3 z"/>
<text class="t" x="291.3" y="203.0" font-size="12.5" text-anchor="start" font-weight="700">204</text>
<text class="t" x="256.0" y="241.0" font-size="12.5" text-anchor="end">tier A, uncontaminated: selected</text>
<path class="s1" d="M268.0,224.0 h9.4 a4,4 0 0 1 4,4 v18.0 a4,4 0 0 1 -4,4 h-9.4 z"/>
<text class="t" x="289.4" y="241.0" font-size="12.5" text-anchor="start" font-weight="700">179</text>
<text class="f" x="16.0" y="286.0" font-size="10.5" text-anchor="start">Source: pipeline.capture_export over the live log (7,997 lines), measured 2026-09-22; training/DATA_PRODUCTION.md “Measured yield”.</text>
</svg>
